<svg width="1rem" height="1rem" viewBox="0 0 34 34" fill="none" xmlns="http://www.w3.org/2000/svg">
<path d="M13.9213 6.25923C14.0062 6.43201 14.0622 6.61703 14.0874 6.80725L14.5514 13.7071V13.7071L14.7818 17.1751C14.7841 17.5318 14.8401 17.8861 14.9478 18.2267C15.226 18.8876 15.8953 19.3076 16.6235 19.2783L27.7189 18.5526C28.1994 18.5447 28.6634 18.7244 29.0088 19.0522C29.2966 19.3253 29.4824 19.6826 29.541 20.067L29.5606 20.3003C29.1015 26.6582 24.432 31.9611 18.0873 33.33C11.7426 34.6989 5.23648 31.8072 2.10122 26.2248C1.19735 24.6031 0.632791 22.8204 0.440677 20.9816C0.360422 20.4373 0.325083 19.8875 0.335006 19.3376C0.325097 12.5212 5.17916 6.62828 11.9739 5.20763C12.7917 5.08029 13.5934 5.51322 13.9213 6.25923Z" fill="#0089FF"/>
<path opacity="0.4" d="M18.45 0.334861C26.0498 0.528207 32.4372 5.99314 33.6667 13.354L33.6549 13.4083V13.4083L33.6214 13.4873L33.6261 13.7041C33.6087 13.9914 33.4978 14.2677 33.3066 14.491C33.1075 14.7235 32.8355 14.8819 32.536 14.9433L32.3533 14.9684L19.552 15.7978C19.1262 15.8398 18.7023 15.7025 18.3856 15.4201C18.1217 15.1847 17.953 14.867 17.9054 14.5246L17.0461 1.74193C17.0312 1.69871 17.0312 1.65185 17.0461 1.60863C17.0579 1.25628 17.213 0.923229 17.4768 0.683879C17.7406 0.444529 18.0911 0.318829 18.45 0.334861Z" fill="#0089FF"/>
</svg>
