<svg width="1rem" height="1rem" viewBox="0 0 58 58" fill="none" xmlns="http://www.w3.org/2000/svg">
<path d="M44.8532 0H13.1468C5.88604 0 0 5.88604 0 13.1468V44.8532C0 52.114 5.88604 58 13.1468 58H44.8532C52.114 58 58 52.114 58 44.8532V13.1468C58 5.88604 52.114 0 44.8532 0Z" fill="#8C64D8"/>
<path d="M47.8609 36.8202V12.8822H38.7517L29.0928 33.1754H28.9236L19.2647 12.8822H10.1555V36.8202H0V42.5383H15.875V18.5172H16.0441L25.7876 38.8949H32.2274L41.9723 18.5172H42.1414V36.8202H42.125V42.5383H58V36.8202H47.8609Z" fill="#DAEF14"/>
</svg>
