<svg width="1rem" height="1rem" viewBox="0 0 30 34" fill="none" xmlns="http://www.w3.org/2000/svg">
<path opacity="0.4" d="M26.3481 12.0352C25.5955 12.0352 24.5988 12.0185 23.3578 12.0185C20.3312 12.0185 17.8426 9.5135 17.8426 6.4585V1.0985C17.8426 0.676829 17.5043 0.333496 17.0884 0.333496H8.27275C4.15865 0.333496 0.833374 3.71016 0.833374 7.8485V25.8068C0.833374 30.1485 4.31708 33.6668 8.61601 33.6668H21.7422C25.8431 33.6668 29.1667 30.3118 29.1667 26.1702V12.7852C29.1667 12.3618 28.8301 12.0202 28.4109 12.0218C27.7079 12.0268 26.8613 12.0352 26.3481 12.0352" fill="#0089FF"/>
<path opacity="0.4" d="M21.8071 1.27895C21.3087 0.760616 20.4387 1.11728 20.4387 1.83562V6.23062C20.4387 8.07395 21.9571 9.59062 23.7987 9.59062C24.9621 9.60395 26.5754 9.60728 27.9454 9.60395C28.6471 9.60228 29.0037 8.76395 28.5171 8.25728C26.7587 6.42895 23.6104 3.15228 21.8071 1.27895" fill="#0089FF"/>
<path d="M20.1753 18.4732C19.6903 18.9549 18.9053 18.9582 18.4187 18.4699L15.7703 15.8082V23.8532C15.7703 24.5382 15.2137 25.0949 14.5287 25.0949C13.8437 25.0949 13.2887 24.5382 13.2887 23.8532V15.8082L10.637 18.4699C10.1537 18.9582 9.36701 18.9549 8.88201 18.4732C8.39701 17.9915 8.39534 17.2049 8.87867 16.7182L13.6487 11.9265C13.6503 11.9249 13.6503 11.9249 13.6503 11.9249C13.7637 11.8115 13.9003 11.7199 14.0503 11.6582C14.2003 11.5949 14.3637 11.5615 14.5287 11.5615C14.6953 11.5615 14.8587 11.5949 15.0087 11.6582C15.157 11.7199 15.292 11.8115 15.4053 11.9232C15.407 11.9249 15.4087 11.9249 15.4087 11.9265L20.1787 16.7182C20.662 17.2049 20.662 17.9915 20.1753 18.4732" fill="#0089FF"/>
</svg>
