<svg viewBox="0 0 159 35" xmlns="http://www.w3.org/2000/svg"><path d="M6.25 3.972c3.41 0 6.166 2.533 6.166 5.987 0 3.425-2.812 6.016-5.995 6.016-1.506 0-2.955-.432-4.034-1.67h-.114v8.721H0V10.91c0-4.231 2.415-6.937 6.25-6.937Zm-.028 9.988c2.274 0 3.808-1.814 3.808-4.001 0-2.159-1.506-3.972-3.808-3.972-2.301 0-3.864 1.785-3.864 3.943 0 2.216 1.591 4.03 3.864 4.03ZM14.547 9.988c0-3.454 2.87-6.016 6.222-6.016 3.382 0 6.223 2.562 6.223 6.016s-2.87 6.015-6.223 6.015c-3.352-.028-6.222-2.561-6.222-6.015Zm6.222 3.972c2.273 0 3.808-1.785 3.808-3.972 0-2.216-1.535-3.972-3.808-3.972-2.273 0-3.807 1.756-3.807 3.972 0 2.187 1.534 3.972 3.807 3.972ZM35.402 15.975c-3.58 0-6.279-2.533-6.279-6.016 0-3.454 2.642-6.016 6.223-6.016 2.727 0 5.284 1.497 5.938 4.347h-2.358c-.569-1.526-1.933-2.332-3.524-2.332-2.415 0-3.864 1.813-3.864 4.03 0 2.245 1.506 3.943 3.921 3.943 1.563 0 2.984-.72 3.523-2.389h2.359c-.881 3.051-3.296 4.433-5.939 4.433ZM49.751 14.334l-3.722-7.916h-.085v9.326h-2.188V4.202h3.495l3.693 7.887h.086l3.693-7.887h3.495v11.542H56.03V6.418h-.056l-3.751 7.916h-2.472ZM60.662 9.988c0-3.454 2.87-6.016 6.223-6.016 3.352 0 6.222 2.562 6.222 6.016s-2.87 6.015-6.222 6.015c-3.353-.028-6.223-2.561-6.223-6.015Zm6.223 3.972c2.273 0 3.807-1.785 3.807-3.972 0-2.216-1.534-3.972-3.807-3.972-2.273 0-3.808 1.756-3.808 3.972 0 2.187 1.535 3.972 3.808 3.972ZM74.272 15.83v-2.389h.056c.426 0 .966-.201 1.307-.575.426-.49.625-1.324.853-2.59l.312-1.843c.37-2.13 1.108-4.288 4.262-4.288h4.461v11.57H83.25V6.303h-1.762c-1.761 0-2.159.49-2.557 2.936l-.284 1.727c-.256 1.583-.653 2.936-1.449 3.828-.625.662-1.477 1.036-2.642 1.036h-.284ZM88.023 9.988c0-3.454 2.87-6.016 6.223-6.016 3.353 0 6.222 2.562 6.222 6.016s-2.87 6.015-6.222 6.015c-3.353-.028-6.223-2.561-6.223-6.015Zm6.223 3.972c2.273 0 3.807-1.785 3.807-3.972 0-2.216-1.534-3.972-3.807-3.972-2.273 0-3.807 1.756-3.807 3.972 0 2.187 1.534 3.972 3.807 3.972ZM103.112 18.536h-2.188v-4.922h1.477c.654-.748.995-1.842 1.307-3.166l.483-2.13c.483-2.072 1.336-4.116 4.149-4.116h4.432v9.44h1.648v4.952h-2.188v-2.792h-9.092v2.734h-.028Zm7.415-4.893V6.275h-2.131c-1.392 0-1.846 1.122-2.13 2.302l-.512 2.216c-.284 1.238-.71 2.246-1.108 2.677v.173h5.881ZM122.376 15.975c-3.637 0-6.251-2.533-6.251-6.016 0-3.454 2.642-6.016 6.166-6.016 2.727 0 6.023 1.814 6.023 6.189v.518h-9.916c.256 1.928 1.733 3.338 3.978 3.338 1.335 0 2.926-.489 3.353-1.669h2.33c-.711 2.504-3.382 3.655-5.683 3.655ZM118.426 0h2.359v2.389h-2.359V0Zm7.502 8.865c-.37-1.756-1.705-2.907-3.666-2.907-1.96 0-3.353 1.238-3.779 2.907h7.445ZM123.541 0h2.358v2.389h-2.358V0ZM139.026 4.202V8.78h1.904l2.671-4.577h2.5l-3.324 5.526 3.608 6.016h-2.557l-2.87-4.864h-1.932v4.864h-2.159V10.88h-1.932l-2.87 4.864h-2.557l3.608-6.016-3.324-5.526h2.5l2.671 4.577h1.904V4.202h2.159ZM147.976 10.563l-.029-6.332h2.273l.029 3.281h.057c.966-1.18 2.187-1.756 3.636-1.756 2.785 0 5.058 2.102 5.058 5.066 0 2.994-2.301 5.21-5.484 5.21-3.182-.058-5.512-2.332-5.54-5.469Zm5.483 3.397c1.819 0 3.126-1.296 3.126-3.08 0-1.785-1.307-3.109-3.126-3.109-1.79 0-3.097 1.324-3.097 3.109 0 1.813 1.336 3.08 3.097 3.08ZM59.526 24.811H55.72v6.764h-1.194V23.63h5.001v1.18ZM60.576 23.63h1.222v1.411h.028c.54-1.007 1.535-1.67 2.955-1.67 2.16 0 3.864 1.584 3.864 4.232 0 2.619-1.733 4.23-3.864 4.23-1.42 0-2.415-.661-2.955-1.669h-.028V35h-1.222V23.63Zm6.82 3.973c0-1.756-1.109-2.994-2.842-2.994-1.705 0-2.813 1.267-2.813 2.994 0 1.755 1.108 2.993 2.813 2.993s2.841-1.238 2.841-2.993ZM69.697 27.603c0-2.62 1.733-4.231 3.864-4.231 1.421 0 2.416.662 2.955 1.669h.029v-1.41h1.222v7.915h-1.222v-1.41h-.029c-.54 1.007-1.534 1.669-2.955 1.669-2.13.029-3.864-1.583-3.864-4.202Zm6.933 0c0-1.756-1.108-2.994-2.841-2.994-1.705 0-2.842 1.267-2.842 2.994 0 1.755 1.109 2.993 2.842 2.993s2.841-1.238 2.841-2.993ZM86.745 23.63v7.945h-1.222v-3.627h-4.575v3.627h-1.221V23.63h1.221v3.166h4.575v-3.166h1.222ZM95.014 24.782h-3.012v6.793H90.78v-6.793h-2.983v-1.151h7.217v1.151ZM102.486 29.07c0 1.469-1.052 2.505-2.671 2.505H96.12V23.63h1.222v2.936h2.5c1.591 0 2.643.978 2.643 2.504Zm-1.307 0c0-.891-.483-1.38-1.506-1.38h-2.359v2.762h2.359c1.023 0 1.506-.518 1.506-1.381Zm3.296 2.505h-1.222V23.63h1.222v7.944Z" fill="currentColor"></path></svg>