<svg width="1rem" height="1rem" viewBox="0 0 24 24" fill="none" xmlns="http://www.w3.org/2000/svg">
<path d="M9.98699 1.82706C11.1289 0.790637 12.8711 0.790637 14.013 1.82706V1.82706C14.6477 2.40314 15.4988 2.67968 16.3509 2.5867V2.5867C17.884 2.41941 19.2934 3.44346 19.6081 4.95314V4.95314C19.783 5.79227 20.309 6.51627 21.053 6.9419V6.9419C22.3915 7.70764 22.9299 9.36459 22.2971 10.7709V10.7709C21.9454 11.5525 21.9454 12.4475 22.2971 13.2291V13.2291C22.9299 14.6354 22.3915 16.2924 21.053 17.0581V17.0581C20.309 17.4837 19.783 18.2077 19.6081 19.0469V19.0469C19.2934 20.5565 17.884 21.5806 16.3509 21.4133V21.4133C15.4988 21.3203 14.6477 21.5969 14.013 22.1729V22.1729C12.8711 23.2094 11.1289 23.2094 9.98699 22.1729V22.1729C9.35227 21.5969 8.50116 21.3203 7.64906 21.4133V21.4133C6.11604 21.5806 4.70656 20.5565 4.39193 19.0469V19.0469C4.21705 18.2077 3.69103 17.4837 2.94701 17.0581V17.0581C1.60845 16.2924 1.07008 14.6354 1.7029 13.2291V13.2291C2.05465 12.4475 2.05465 11.5525 1.7029 10.7709V10.7709C1.07008 9.36459 1.60845 7.70764 2.94701 6.9419V6.9419C3.69103 6.51627 4.21705 5.79227 4.39193 4.95314V4.95314C4.70656 3.44346 6.11604 2.41941 7.64906 2.5867V2.5867C8.50116 2.67968 9.35227 2.40314 9.98699 1.82706V1.82706Z" fill="#00D195"/>
<path d="M7.89011 12.5105L9.061 11.3355L10.9834 13.2247L15.2476 8.97706L16.4268 10.1521L10.9834 15.5664L7.89011 12.5105Z" fill="white"/>
</svg>
